<svg xmlns="http://www.w3.org/2000/svg" xmlns:xlink="http://www.w3.org/1999/xlink" width="19" height="20" viewBox="0 0 19 20"><defs><path id="8lsya" d="M53.186 280.035a3.646 3.646 0 1 1-7.292 0 3.646 3.646 0 0 1 7.292 0zm.827 0a4.488 4.488 0 0 0-4.473-4.473 4.474 4.474 0 0 0 0 8.946 4.488 4.488 0 0 0 4.473-4.473zm-8.946 6.19l-.551.551a.424.424 0 0 1-.573 0l-1.145-1.144a.424.424 0 0 1 0-.573l.552-.551c.381-.36.466-.933.233-1.4a5.862 5.862 0 0 1-.424-.996c-.149-.508-.636-.848-1.166-.848h-.785a.403.403 0 0 1-.402-.402v-1.633c0-.212.17-.403.402-.403h.785c.53 0 .996-.339 1.166-.848.127-.339.254-.678.424-.996a1.197 1.197 0 0 0-.233-1.4l-.552-.55a.424.424 0 0 1 0-.573l1.145-1.144a.424.424 0 0 1 .573 0l.55.55c.361.361.955.467 1.4.234.318-.17.657-.318.996-.424.509-.148.848-.636.848-1.166v-.784c0-.212.17-.403.403-.403h1.632c.212 0 .403.17.403.403v.784c0 .53.34.996.848 1.166.34.127.679.254.997.424.445.233 1.038.127 1.399-.233l.55-.551a.424.424 0 0 1 .573 0l1.145 1.144a.424.424 0 0 1 0 .573l-.551.55c-.382.361-.466.934-.233 1.4.17.318.318.657.424.996.148.51.636.848 1.166.848h.784c.212 0 .403.17.403.403v1.633c0 .212-.17.402-.403.402h-.784c-.53 0-.997.34-1.166.848-.127.34-.255.679-.424.997a1.197 1.197 0 0 0 .233 1.399l.551.551a.424.424 0 0 1 0 .573l-1.145 1.144a.424.424 0 0 1-.572 0l-.551-.55c-.36-.361-.954-.467-1.4-.234-.317.17-.657.318-.996.424-.509.148-.848.636-.848 1.166v.784c0 .212-.17.403-.403.403h-1.632a.403.403 0 0 1-.403-.403v-.784c0-.53-.339-.996-.848-1.166-.339-.127-.678-.254-.996-.424a1.089 1.089 0 0 0-.53-.127c-.318 0-.636.127-.87.36zm6.508 2.12v-.784c0-.191.106-.34.276-.403a7.39 7.39 0 0 0 1.123-.467.427.427 0 0 1 .467.085l.55.551c.234.234.552.36.87.36a1.2 1.2 0 0 0 .87-.36l1.144-1.144a1.229 1.229 0 0 0 0-1.717l-.551-.552c-.128-.127-.17-.318-.085-.466.19-.36.34-.742.466-1.124a.415.415 0 0 1 .403-.275h.784c.658 0 1.209-.53 1.209-1.209v-1.632c0-.657-.53-1.208-1.209-1.208h-.784a.415.415 0 0 1-.403-.276 7.39 7.39 0 0 0-.466-1.124.427.427 0 0 1 .085-.466l.55-.551a1.229 1.229 0 0 0 0-1.717l-1.144-1.145a1.237 1.237 0 0 0-.87-.36 1.2 1.2 0 0 0-.868.36l-.551.551c-.128.127-.318.17-.467.085a7.39 7.39 0 0 0-1.123-.466.415.415 0 0 1-.276-.403v-.785c0-.657-.53-1.208-1.208-1.208h-1.633c-.678 0-1.23.551-1.208 1.208v.785c0 .19-.106.339-.276.403a7.39 7.39 0 0 0-1.123.466.427.427 0 0 1-.467-.085l-.55-.551a1.237 1.237 0 0 0-.87-.36 1.2 1.2 0 0 0-.87.36l-1.144 1.145a1.229 1.229 0 0 0 0 1.717l.551.551c.127.127.17.318.085.466-.19.36-.34.742-.466 1.124a.415.415 0 0 1-.403.276h-.785c-.657 0-1.208.53-1.208 1.208v1.632c0 .679.551 1.23 1.187 1.23h.785c.19 0 .339.106.402.276.128.381.276.763.467 1.123a.427.427 0 0 1-.085.467l-.551.55a1.229 1.229 0 0 0 0 1.718l1.145 1.145c.233.233.55.36.869.36a1.2 1.2 0 0 0 .869-.36l.551-.552c.127-.127.318-.17.466-.084.36.19.742.339 1.124.466.17.064.276.212.276.403v.784c0 .657.53 1.209 1.208 1.209h1.632a1.23 1.23 0 0 0 1.23-1.23z"/></defs><g><g transform="translate(-40 -270)"><use fill="#2a633f" xlink:href="#8lsya"/></g></g></svg>