<svg xmlns="http://www.w3.org/2000/svg" xmlns:xlink="http://www.w3.org/1999/xlink" width="14" height="16" viewBox="0 0 14 16"><defs><path id="x4ska" d="M45.297 330.856a3.085 3.085 0 1 1 6.17 0 3.085 3.085 0 0 1-6.17 0zm6.941 0a3.856 3.856 0 1 0-7.712 0 3.856 3.856 0 0 0 7.712 0zm-3.856 5.4a5.788 5.788 0 0 1 5.787 5.783H42.598a5.784 5.784 0 0 1 5.784-5.784zm0-.772a6.555 6.555 0 0 0-6.555 6.555c0 .425.346.772.768.772H54.17a.771.771 0 0 0 .769-.772 6.555 6.555 0 0 0-6.556-6.555z"/></defs><g><g transform="translate(-41 -327)"><use fill="#2a633f" xlink:href="#x4ska"/></g></g></svg>