<svg xmlns="http://www.w3.org/2000/svg" xmlns:xlink="http://www.w3.org/1999/xlink" width="66" height="70" viewBox="0 0 66 70"><defs><path id="k8eba" d="M734.574 291.092s-.711 16.251 10.979 16.712c11.69.46 16.694-5.778 17.1-6.177.405-.4 0-36.362 0-36.362h-28.079z"/><path id="k8ebb" d="M757.043 280.673h-5.518l-1.709-5.25c-.23-.707-1.404-.703-1.634 0l-1.704 5.25h-5.516a.862.862 0 0 0-.817.592.864.864 0 0 0 .311.96l4.465 3.244-1.707 5.25a.86.86 0 0 0 1.32.958l4.468-3.244 4.466 3.244a.85.85 0 0 0 1.01 0 .863.863 0 0 0 .313-.958l-1.707-5.25 4.465-3.244a.863.863 0 0 0 .313-.958.871.871 0 0 0-.82-.594z"/><path id="k8ebc" d="M737.326 319.682c-4.415.439 10.76.552 10.76.552l2.022-11.953h-3.46s-4.906 10.961-9.322 11.4z"/><path id="k8ebd" d="M731 332.706c-2.389.22 21.451 0 21.451 0V319.56h-19.824s.763 12.926-1.627 13.146z"/><path id="k8ebe" d="M767.821 271.363l9.88-.003.344-.006c.702 0 .734.062.734.062.003.003.079.11.137.539 1.137 8.489-3.081 16.459-11.095 21.19zm-16.467 35.544c-.913.114-1.802.172-2.668.172-5.728 0-10.31-2.53-13.625-7.521-1.685-2.548-2.542-5.597-2.545-9.063v-24.11h32.967l.003 23.816c.003 2.763-.434 5.078-1.347 7.072-2.58 5.664-6.88 8.905-12.785 9.634zm10.001 11.818zm-8.955.011l-7.218-.014c-2.285-.009-4.57-.038-6.86-.064l-1.58-.018c2.68-2.154 6.621-5.737 7.74-9.687a19.77 19.77 0 0 0 4.198.455c.96 0 1.945-.061 2.953-.184.642-.078 1.251-.21 1.86-.34 1.111 4.025 5.169 7.683 7.862 9.84zm15.208 4.14c.053 2.285.041 4.574.03 6.88l-.006 1.827H730.37l-.005-1.84c-.012-2.349-.027-4.68.032-7.013.035-1.326 1.242-1.796 2.291-1.796 1.871.012 3.74.035 5.612.059 2.29.029 4.582.058 6.874.067l7.226.011 9.862-.011a31.175 31.175 0 0 0 1.568-.062c.493-.032.962-.087 1.656-.055 1.262.018 2.096.775 2.122 1.933zm-37.43-29.734c-8.01-4.731-12.229-12.698-11.09-21.19.056-.4.126-.519.117-.519.032-.017.184-.079.753-.079l10.223.01v21.778zm47.864-24.12l-10.227.006v-3.81c0-.644-.524-1.166-1.166-1.166h-35.3c-.643 0-1.165.525-1.165 1.166v3.813h-9.815l-.411-.009c-1.4 0-2.872.312-3.18 2.621-1.356 10.083 4.028 19.473 14.044 24.501.047.024.102.02.152.035a16.997 16.997 0 0 0 2.145 4.662c2.437 3.676 5.498 6.16 9.125 7.471-1.102 3.944-6.236 7.967-8.273 9.547a16.7 16.7 0 0 0-.904.74c-.137 0-.268-.003-.405-.003-2.603 0-4.536 1.714-4.595 4.073-.06 2.355-.05 4.71-.035 7.086l.01 2.991c0 .644.524 1.166 1.165 1.166h39.588c.644 0 1.166-.524 1.166-1.166l.009-2.979c.011-2.332.023-4.644-.032-6.952-.056-2.4-1.913-4.172-4.632-4.21-.117 0-.237.012-.353.015-.184-.166-.47-.405-.918-.752-2.053-1.592-7.227-5.647-8.294-9.611 4.676-1.621 8.218-4.959 10.52-10.02.298-.655.543-1.343.753-2.055.052-.017.11-.011.16-.038 10.02-5.031 15.404-14.418 14.048-24.501-.303-2.306-1.778-2.62-3.18-2.62z"/></defs><g><g transform="translate(-716 -264)"><g><use fill="#c9f5d9" xlink:href="#k8eba"/></g><g><use fill="#65c688" xlink:href="#k8ebb"/></g><g><use fill="#c9f5d9" xlink:href="#k8ebc"/></g><g><use fill="#c9f5d9" xlink:href="#k8ebd"/></g><g><use fill="#2a633f" xlink:href="#k8ebe"/></g></g></g></svg>