<svg xmlns="http://www.w3.org/2000/svg" xmlns:xlink="http://www.w3.org/1999/xlink" width="19" height="19" viewBox="0 0 19 19"><defs><path id="hgffa" d="M50.846 185.894v-.667a2.417 2.417 0 0 0 1.714-2.304c0-1.314-1.066-2.4-2.4-2.4a2.402 2.402 0 0 0-2.399 2.4h1.371c0-.572.457-1.029 1.029-1.029.57 0 1.028.457 1.028 1.029 0 .571-.457 1.028-1.028 1.028h-.686v1.943zm0 2.037v-1.161h-1.371v1.161zm-8.36-3.809a7.697 7.697 0 0 0 7.694 7.694c.742 0 1.447-.095 2.114-.304l.038-.02-.153-.761-.057.019a7.04 7.04 0 0 1-1.98.305c-3.81 0-6.914-3.104-6.914-6.914 0-3.808 3.105-6.913 6.913-6.913 3.81 0 6.914 3.105 6.914 6.913a6.965 6.965 0 0 1-1.333 4.095v.038l.666.381.02-.038a7.578 7.578 0 0 0 1.428-4.457c.019-2.075-.762-4.018-2.21-5.465a7.603 7.603 0 0 0-5.446-2.267 7.697 7.697 0 0 0-7.694 7.694zm7.675 9.237c5.065 0 9.18-4.114 9.18-9.16a9.081 9.081 0 0 0-2.648-6.495C54.941 175.971 52.636 175 50.18 175c-.857 0-1.676.114-2.457.343l-.038.019.133.704.057-.019a8.742 8.742 0 0 1 2.305-.323c4.666 0 8.475 3.79 8.475 8.475s-3.81 8.455-8.475 8.455c-4.666-.019-8.456-3.827-8.456-8.474 0-1.772.533-3.448 1.561-4.895l.039-.038-.629-.362-.019.038A9.141 9.141 0 0 0 41 184.2c0 5.046 4.114 9.16 9.16 9.16z"/></defs><g><g transform="translate(-41 -175)"><use fill="#2a633f" xlink:href="#hgffa"/></g></g></svg>