<svg xmlns="http://www.w3.org/2000/svg" xmlns:xlink="http://www.w3.org/1999/xlink" width="21" height="16" viewBox="0 0 21 16"><defs><path id="alu3a" d="M42.666 227.628a.263.263 0 1 1 0-.527h5.462a.263.263 0 1 1 0 .527zm0 2.146a.264.264 0 1 1 0-.527h2.621a.263.263 0 1 1 0 .527zm0 2.146a.263.263 0 1 1 0-.527h4.732a.263.263 0 1 1 0 .527zm0 2.147a.264.264 0 1 1 0-.527h1.94a.263.263 0 1 1 0 .527zm0 2.146a.264.264 0 1 1 0-.527h2.962a.263.263 0 1 1 0 .527zm13.765-10.904l1.444 1.444c.447-.553.488-1.138.091-1.535a.898.898 0 0 0-.648-.269c-.284 0-.593.121-.887.36zm-7.909 7.89l1.463 1.463 7.527-7.527-.731-.731-.732-.731zm-.832 2.34l1.81-.616-1.23-1.23zm-.592.607a.263.263 0 0 1-.067-.268l.867-2.758c.001-.004.004-.007.006-.01.004-.014.013-.026.02-.039.011-.018.021-.036.035-.052.002-.001.002-.004.004-.006l7.9-7.9c.456-.455.958-.696 1.453-.696.39 0 .743.148 1.023.429.55.55.68 1.528-.268 2.475l-7.9 7.9-.004.003c-.016.015-.036.025-.055.037l-.034.02c-.002 0-.004.003-.007.003l-2.704.923a.263.263 0 0 1-.269-.06zm-6.335 1.943a.263.263 0 0 1-.263-.264v-12.43c0-.145.118-.264.263-.264h11.698a.264.264 0 1 1 0 .528H41.027v11.902H54.09v-4.047a.263.263 0 1 1 .527 0v4.311a.263.263 0 0 1-.264.264z"/></defs><g><g transform="translate(-39 -223)"><use fill="#2a633f" xlink:href="#alu3a"/><use fill="#fff" fill-opacity="0" stroke="#2a633f" stroke-miterlimit="50" stroke-width=".3" xlink:href="#alu3a"/></g></g></svg>